<?xml version="1.0" standalone="no"?>
<!DOCTYPE svg PUBLIC "-//W3C//DTD SVG 20010904//EN"
 "http://www.w3.org/TR/2001/REC-SVG-20010904/DTD/svg10.dtd">
<svg version="1.0" xmlns="http://www.w3.org/2000/svg"
 width="512.000000pt" height="512.000000pt" viewBox="0 0 512.000000 512.000000"
 preserveAspectRatio="xMidYMid meet">

<g transform="translate(0.000000,512.000000) scale(0.100000,-0.100000)"
fill="#000000" stroke="none">
<path d="M846 5100 c-100 -39 -154 -120 -163 -245 l-6 -75 -66 0 c-112 0 -205
-59 -250 -160 -20 -45 -21 -54 -21 -2216 0 -2413 -5 -2235 67 -2315 20 -22 55
-50 77 -62 l41 -22 2035 0 2035 0 41 22 c22 12 57 40 77 62 72 80 67 -98 67
2315 0 2162 -1 2171 -21 2216 -45 101 -138 160 -250 160 l-66 0 -6 73 c-3 40
-12 89 -20 109 -25 60 -83 115 -144 138 -54 20 -69 20 -707 18 -612 -3 -653
-4 -686 -22 -95 -50 -150 -145 -150 -256 l0 -60 -170 0 -170 0 0 60 c0 111
-55 206 -150 256 -33 18 -73 19 -690 21 -627 2 -657 2 -704 -17z m1346 -177
c16 -17 23 -38 26 -83 l4 -60 -686 0 -686 0 0 40 c0 54 24 108 52 120 14 5
279 8 645 7 l622 -2 23 -22z m2023 17 c31 -12 55 -63 55 -120 l0 -40 -685 0
-685 0 0 48 c0 56 17 92 50 109 32 16 1223 19 1265 3z m340 -344 c54 -23 56
-44 53 -466 l-3 -375 -2045 0 -2045 0 -3 375 c-3 418 -1 443 51 465 49 21
3941 22 3992 1z m53 -2696 l-3 -1679 -23 -23 -23 -23 -1299 -3 -1300 -2 0 74
c0 61 -5 83 -28 127 -31 60 -93 113 -150 129 -21 5 -148 10 -297 10 -251 0
-262 -1 -310 -24 -55 -25 -110 -81 -131 -133 -8 -18 -17 -67 -21 -108 l-6 -76
-228 3 c-222 3 -229 4 -251 26 l-23 23 -3 1679 -2 1680 2050 0 2050 0 -2
-1680z m-2844 -1586 c22 -23 26 -35 26 -86 l0 -58 -297 2 -298 3 -3 24 c-6 41
8 92 33 117 24 24 24 24 268 24 l244 0 27 -26z"/>
<path d="M734 4426 c-20 -9 -35 -25 -43 -46 -14 -42 -15 -359 -1 -396 20 -51
29 -53 251 -54 271 0 249 -22 249 251 -1 220 -3 229 -54 249 -42 15 -364 12
-402 -4z m286 -241 l0 -85 -85 0 -85 0 0 78 c0 43 3 82 7 85 3 4 42 7 85 7
l78 0 0 -85z"/>
<path d="M1421 4429 c-48 -19 -50 -31 -51 -250 0 -271 -22 -249 251 -249 220
1 229 3 249 54 5 15 10 104 10 197 0 196 -8 229 -60 248 -40 14 -365 14 -399
0z m287 -246 l3 -83 -86 0 -85 0 0 85 0 86 83 -3 82 -3 3 -82z"/>
<path d="M2104 4430 c-50 -20 -54 -40 -54 -253 0 -197 0 -198 25 -222 l24 -25
461 0 461 0 24 25 c25 24 25 25 25 224 0 197 0 200 -24 228 l-24 28 -449 2
c-246 1 -458 -2 -469 -7z m796 -245 l0 -85 -340 0 -340 0 0 85 0 85 340 0 340
0 0 -85z"/>
<path d="M3294 4426 c-20 -9 -35 -25 -43 -46 -14 -42 -15 -359 -1 -396 20 -51
29 -53 251 -54 271 0 249 -22 249 251 -1 220 -3 229 -54 249 -42 15 -364 12
-402 -4z m286 -241 l0 -85 -85 0 -85 0 0 78 c0 43 3 82 7 85 3 4 42 7 85 7
l78 0 0 -85z"/>
<path d="M3981 4429 c-48 -19 -50 -31 -51 -250 0 -271 -22 -249 251 -249 220
1 229 3 249 54 5 15 10 104 10 197 0 196 -8 229 -60 248 -40 14 -365 14 -399
0z m287 -246 l3 -83 -86 0 -85 0 0 85 0 86 83 -3 82 -3 3 -82z"/>
<path d="M795 3385 l-25 -24 0 -1310 0 -1310 24 -28 24 -28 1742 0 1742 0 24
28 24 28 0 1310 0 1310 -25 24 -24 25 -1741 0 -1741 0 -24 -25z m3385 -315 l0
-170 -1620 0 -1620 0 0 170 0 170 1620 0 1620 0 0 -170z m0 -1280 l0 -940
-1620 0 -1620 0 0 940 0 940 1620 0 1620 0 0 -940z"/>
<path d="M1575 2541 c-16 -10 -128 -117 -247 -238 -190 -191 -218 -224 -218
-251 0 -47 39 -86 84 -86 35 0 51 14 271 234 131 131 235 243 238 256 5 30
-17 80 -42 93 -28 16 -52 14 -86 -8z"/>
<path d="M1863 2407 c-140 -139 -153 -156 -153 -188 0 -36 25 -69 63 -82 35
-13 84 22 220 160 116 119 137 144 137 170 0 45 -9 62 -41 78 -55 29 -66 23
-226 -138z"/>
<path d="M1524 2069 c-35 -34 -66 -70 -70 -81 -16 -51 28 -108 83 -108 63 0
184 136 166 187 -13 37 -46 63 -81 63 -28 0 -45 -11 -98 -61z"/>
<path d="M1335 1871 c-11 -5 -66 -56 -122 -114 -84 -85 -103 -110 -103 -134 0
-45 40 -83 87 -83 35 0 46 9 145 109 90 91 108 114 108 139 0 57 -65 104 -115
83z"/>
</g>
</svg>
