<?xml version="1.0" standalone="no"?>
<!DOCTYPE svg PUBLIC "-//W3C//DTD SVG 20010904//EN"
 "http://www.w3.org/TR/2001/REC-SVG-20010904/DTD/svg10.dtd">
<svg version="1.0" xmlns="http://www.w3.org/2000/svg"
 width="512.000000pt" height="512.000000pt" viewBox="0 0 512.000000 512.000000"
 preserveAspectRatio="xMidYMid meet">

<g transform="translate(0.000000,512.000000) scale(0.100000,-0.100000)"
fill="#000000" stroke="none">
<path d="M288 4832 l-291 -290 6 -43 c5 -40 22 -59 299 -336 198 -198 303
-296 323 -302 25 -7 67 2 210 45 l180 53 180 -179 180 -180 -491 -492 c-518
-521 -549 -557 -634 -732 -87 -182 -124 -345 -123 -556 1 -263 67 -480 215
-703 48 -71 126 -156 337 -371 152 -153 310 -306 352 -340 446 -357 1058 -377
1529 -48 37 26 276 256 553 531 l487 486 180 -180 179 -180 -54 -183 c-51
-171 -54 -185 -41 -215 8 -18 144 -162 303 -320 272 -271 292 -289 332 -294
l43 -6 290 291 291 290 -6 43 c-5 40 -23 60 -294 332 -158 159 -302 295 -320
303 -30 13 -44 10 -215 -41 l-183 -54 -180 179 -180 180 451 452 c493 497 532
543 635 753 97 199 142 365 158 583 73 959 -722 1753 -1681 1681 -219 -16
-409 -69 -600 -166 -200 -101 -249 -143 -736 -627 l-452 -451 -180 180 -179
180 53 179 c43 145 52 186 45 210 -6 21 -103 125 -302 324 -277 277 -296 294
-336 299 l-43 6 -290 -291z m722 -534 l-43 -145 -145 -43 -145 -42 -218 218
-219 219 187 187 188 188 218 -219 219 -218 -42 -145z m2656 477 c416 -73 792
-352 981 -730 169 -337 194 -717 72 -1076 -44 -130 -147 -315 -228 -409 l-30
-35 -141 141 -142 141 47 66 c186 266 221 628 91 937 -80 190 -236 362 -419
464 -316 176 -730 156 -1024 -49 l-66 -47 -141 142 -141 141 35 30 c58 50 162
116 256 163 261 130 556 172 850 121z m-1141 -595 l140 -140 -133 -132 -132
-133 -142 142 -143 143 130 130 c71 71 132 130 135 130 3 0 68 -63 145 -140z
m1095 -11 c527 -131 749 -777 417 -1214 -25 -33 -228 -242 -451 -465 l-406
-405 -547 548 -548 547 405 406 c223 223 432 426 465 451 191 144 426 191 665
132z m-1503 -391 c73 -73 133 -137 133 -143 0 -5 -69 -78 -152 -162 l-153
-153 -142 142 -143 143 152 152 c84 84 157 153 163 153 5 0 69 -60 142 -132z
m-786 -1073 c-257 -258 -478 -484 -490 -502 -75 -111 -113 -236 -113 -373 0
-119 19 -200 75 -312 l44 -86 -142 -142 -142 -142 -57 85 c-242 364 -242 820
1 1191 33 51 183 208 527 554 l480 482 143 -142 143 -143 -469 -470z m1159
-220 l545 -545 -270 -270 c-148 -148 -271 -268 -273 -266 -2 2 -8 34 -13 71
-12 88 -48 191 -90 258 -42 67 -556 586 -633 639 -90 62 -170 90 -320 113
l-39 7 269 269 c148 148 271 269 274 269 3 0 250 -245 550 -545z m1695 35
l140 -140 -133 -132 -132 -133 -142 142 -143 143 130 130 c71 71 132 130 135
130 3 0 68 -63 145 -140z m-2647 -261 c30 -10 75 -32 101 -48 25 -17 164 -148
307 -293 224 -226 265 -272 292 -328 43 -90 58 -182 43 -274 -53 -328 -419
-496 -702 -321 -56 35 -548 526 -582 582 -98 158 -91 374 18 522 120 163 331
228 523 160z m2239 -141 c73 -73 133 -137 133 -143 0 -5 -69 -78 -152 -162
l-153 -153 -142 142 -143 143 152 152 c84 84 157 153 163 153 5 0 69 -60 142
-132z m-764 -1051 c-247 -247 -484 -477 -528 -513 -206 -166 -499 -253 -762
-224 -185 20 -338 75 -490 176 l-85 57 142 142 143 143 71 -38 c90 -48 149
-68 244 -81 140 -20 313 20 435 100 40 26 228 206 527 506 l465 465 142 -142
143 -143 -447 -448z m-1873 68 l145 -145 -143 -142 -142 -143 -147 147 -148
148 140 140 c77 77 142 140 145 140 3 0 70 -65 150 -145z m3523 -303 l217
-217 -188 -188 -187 -187 -219 219 -218 219 42 145 42 144 137 41 c75 22 141
41 146 41 6 1 108 -97 228 -217z"/>
</g>
</svg>
