<?xml version="1.0" standalone="no"?>
<!DOCTYPE svg PUBLIC "-//W3C//DTD SVG 20010904//EN"
 "http://www.w3.org/TR/2001/REC-SVG-20010904/DTD/svg10.dtd">
<svg version="1.0" xmlns="http://www.w3.org/2000/svg"
 width="512.000000pt" height="512.000000pt" viewBox="0 0 512.000000 512.000000"
 preserveAspectRatio="xMidYMid meet">

<g transform="translate(0.000000,512.000000) scale(0.100000,-0.100000)"
fill="#000000" stroke="none">
<path d="M4080 5113 c-254 -27 -494 -136 -710 -322 l-35 -30 59 -60 60 -60 45
42 c136 127 343 225 544 257 118 19 340 8 447 -23 159 -45 297 -117 416 -218
l69 -59 54 54 c36 36 52 59 48 70 -8 21 -151 133 -234 182 -223 133 -505 195
-763 167z"/>
<path d="M1827 4975 c-498 -101 -540 -115 -717 -236 -204 -139 -315 -260 -400
-434 -59 -119 -85 -212 -100 -346 -11 -98 -3 -227 19 -322 8 -34 7 -38 -7 -31
-76 31 -145 46 -227 46 -109 0 -168 -12 -261 -57 -88 -43 -134 -83 -134 -120
0 -16 97 -204 246 -477 135 -248 243 -456 240 -464 -3 -8 -24 -41 -46 -74 -36
-53 -39 -63 -29 -82 7 -13 242 -419 522 -902 l509 -879 -15 -56 c-34 -120 -28
-200 22 -307 l30 -64 -740 0 -739 0 0 -85 0 -85 2560 0 2560 0 0 1499 0 1500
-22 25 c-42 46 -53 43 -259 -61 -142 -72 -197 -105 -206 -123 -8 -16 -13 -72
-13 -152 l0 -128 -79 0 -79 0 -4 158 c-3 137 -6 162 -25 197 -47 88 -128 138
-223 137 -97 0 -178 -52 -222 -140 -20 -41 -23 -65 -26 -199 l-4 -153 -58 0
c-136 0 -241 -84 -264 -211 -9 -52 11 -132 45 -178 47 -65 97 -92 193 -104
l84 -11 4 -150 c3 -144 5 -153 32 -204 105 -189 379 -168 452 35 8 25 13 88
14 181 l0 142 80 0 80 0 0 -120 c0 -175 -4 -170 179 -260 l151 -74 0 -686 c-1
-589 -3 -680 -14 -647 -20 55 -60 111 -106 148 -37 30 -40 36 -40 81 0 82 -29
199 -72 288 -33 68 -57 100 -127 170 -140 140 -259 187 -493 197 l-138 6 0 66
c0 111 -54 197 -150 240 -27 12 -87 17 -274 21 l-238 5 -18 70 c-36 137 -97
241 -194 333 -79 74 -144 111 -282 163 -60 22 -112 44 -116 47 -4 4 38 41 94
81 128 94 218 179 273 256 163 229 206 512 119 786 l-24 76 46 48 c68 70 97
141 102 246 5 108 -11 162 -79 263 -48 73 -86 108 -144 139 -24 12 -35 28 -49
74 -29 94 -83 187 -157 270 -152 173 -191 331 -135 551 21 82 22 92 8 88 -10
-3 -129 -37 -267 -76 -137 -39 -258 -73 -267 -76 -14 -4 -11 14 22 110 33 99
36 116 22 115 -9 0 -201 -38 -425 -84z m193 -138 c0 -2 -18 -56 -40 -122 -22
-65 -38 -120 -36 -123 3 -2 137 34 299 80 l294 85 7 -79 c13 -158 74 -295 191
-427 55 -63 125 -173 125 -198 0 -4 -23 -14 -51 -20 -28 -7 -72 -25 -98 -41
-46 -29 -46 -29 -72 -10 -32 24 -96 39 -129 31 -14 -4 -81 -35 -150 -69 -256
-129 -456 -175 -780 -178 l-205 -1 -67 -32 c-122 -57 -207 -169 -228 -299 -23
-137 -8 -353 33 -474 13 -38 21 -70 18 -70 -8 1 -297 642 -320 711 -46 136
-52 337 -15 474 36 135 119 278 219 378 102 101 279 218 396 262 76 28 609
135 609 122z m965 -976 c103 -46 174 -192 146 -298 -12 -42 -57 -106 -71 -101
-4 2 -72 86 -150 187 -111 143 -139 185 -129 193 60 41 140 49 204 19z m-235
-275 c264 -341 300 -415 300 -632 0 -172 -51 -317 -158 -450 -57 -71 -273
-237 -368 -283 -198 -96 -420 -95 -619 3 -135 67 -192 125 -403 414 -249 342
-262 374 -262 632 0 129 4 162 19 196 23 50 83 110 125 123 17 6 130 13 251
15 188 3 237 8 341 30 158 33 302 84 444 156 63 32 118 58 122 57 3 -1 97
-119 208 -261z m-2186 -140 c115 -56 147 -99 280 -364 l115 -230 -47 -17 c-74
-28 -153 -70 -227 -120 -37 -26 -71 -43 -75 -38 -15 17 -410 750 -410 761 0 6
28 20 63 32 97 32 207 23 301 -24z m3701 -581 l25 -24 0 -531 c0 -517 -1 -531
-20 -550 -33 -33 -85 -30 -117 6 l-23 25 0 525 0 525 25 24 c15 16 36 25 55
25 19 0 40 -9 55 -25z m685 -555 l0 -520 -80 40 -80 40 0 443 0 443 73 36 c39
20 75 37 80 37 4 1 7 -233 7 -519z m-3364 -242 l391 -653 12 -93 c21 -170 93
-321 208 -437 l53 -55 -217 0 c-120 0 -244 -4 -276 -10 -56 -9 -140 -43 -182
-74 -19 -14 -36 13 -470 761 -247 427 -465 802 -482 834 l-33 57 66 70 c35 39
86 87 112 106 107 78 280 144 382 145 l45 1 391 -652z m2374 247 l0 -85 -55 0
c-46 0 -60 4 -80 25 -31 30 -32 73 -5 108 21 27 40 33 103 36 l37 1 0 -85z
m660 0 l0 -85 -80 0 -80 0 0 85 0 85 80 0 80 0 0 -85z m-2627 -301 c40 -9 73
-18 74 -19 2 -1 -11 -28 -29 -60 -17 -33 -39 -90 -47 -127 l-16 -68 -91 152
c-51 84 -101 169 -113 188 l-20 35 85 -41 c47 -23 118 -50 157 -60z m482 -45
c54 -15 139 -100 154 -154 6 -22 11 -118 11 -215 l0 -175 -74 -111 -75 -112
70 -46 69 -46 68 104 67 105 243 0 243 1 24 -25 c25 -24 25 -25 25 -221 0
-189 -1 -199 -22 -221 l-21 -23 -307 0 c-338 0 -373 4 -490 63 -88 43 -204
159 -247 247 -56 113 -63 158 -63 420 0 266 4 283 77 353 65 62 154 82 248 56z
m380 -106 c128 -64 234 -199 271 -348 l6 -25 -161 0 -161 0 0 138 c0 121 -7
181 -26 245 -5 16 -2 18 18 12 12 -4 37 -14 53 -22z m906 -556 c26 -20 39 -53
39 -101 l0 -46 -165 0 -165 0 0 49 c0 27 -3 63 -6 80 l-6 31 143 0 c97 -1 149
-5 160 -13z m471 -328 c123 -26 241 -107 310 -213 43 -67 78 -168 78 -227 l0
-39 -152 0 c-84 0 -169 -3 -188 -6 -35 -6 -37 -4 -72 53 -75 121 -198 215
-338 258 -39 12 -107 19 -233 22 l-179 6 6 30 c3 16 6 51 6 78 l0 49 355 0
c220 0 374 -4 407 -11z m-1492 -340 c85 -38 136 -108 147 -199 8 -69 -12 -132
-60 -187 -76 -85 -57 -83 -597 -83 -540 0 -521 -2 -596 83 -111 126 -72 311
81 383 l50 24 465 0 c446 0 467 -1 510 -21z m1142 -16 c158 -74 248 -220 248
-398 l0 -55 -576 0 c-317 0 -574 3 -572 8 97 190 97 280 0 475 -2 4 184 7 414
5 l419 -3 67 -32z m822 -316 c41 -23 70 -61 81 -109 l7 -28 -251 0 -251 0 0
80 0 80 188 0 c175 0 190 -2 226 -23z"/>
<path d="M2473 3580 c-7 -28 -21 -64 -33 -80 -43 -60 -150 -87 -224 -56 l-33
14 -36 -74 -37 -74 38 -16 c105 -44 204 -42 301 7 104 52 178 159 189 271 l5
58 -79 0 -79 0 -12 -50z"/>
<path d="M1730 3270 c0 -64 -51 -136 -113 -159 -40 -15 -101 -14 -142 4 l-35
14 -35 -70 c-20 -38 -33 -74 -30 -79 7 -12 91 -39 146 -46 62 -9 162 18 227
62 86 56 152 179 152 279 0 25 -1 25 -85 25 l-85 0 0 -30z"/>
<path d="M2260 2874 c-168 -113 -304 -209 -302 -215 6 -23 122 -186 153 -216
19 -18 51 -39 71 -47 46 -20 138 -21 182 -2 52 22 301 192 324 221 37 47 55
109 50 178 -4 61 -8 72 -77 176 -41 61 -79 111 -85 110 -6 0 -148 -92 -316
-205z m315 -83 c12 -48 -12 -75 -146 -164 -79 -53 -140 -87 -156 -87 -31 0
-100 67 -85 82 6 6 86 61 178 123 169 113 169 113 186 91 9 -11 20 -32 23 -45z"/>
<path d="M1781 484 c-51 -21 -59 -92 -15 -131 34 -31 70 -29 105 6 34 34 37
68 9 103 -24 31 -59 39 -99 22z"/>
<path d="M2614 490 c-26 -10 -54 -48 -54 -72 0 -30 21 -65 47 -77 35 -16 57
-14 87 10 20 16 26 29 26 60 0 37 -26 79 -49 79 -5 0 -15 2 -23 4 -7 3 -23 1
-34 -4z"/>
<path d="M4053 4775 c-150 -27 -288 -90 -411 -188 l-74 -59 58 -59 c32 -32 59
-59 60 -59 1 0 26 21 56 46 65 55 210 128 298 148 95 23 259 21 355 -4 102
-26 204 -77 284 -141 l63 -52 56 56 56 56 -29 32 c-51 53 -202 146 -291 178
-159 58 -328 74 -481 46z"/>
<path d="M4074 4441 c-89 -24 -176 -68 -229 -114 l-40 -36 57 -57 57 -57 35
27 c72 55 144 80 241 84 106 5 176 -15 256 -72 27 -20 53 -36 57 -36 4 0 32
25 62 55 l55 55 -30 25 c-151 125 -349 173 -521 126z"/>
<path d="M4150 4121 c-110 -34 -182 -126 -183 -236 -1 -139 105 -248 243 -248
219 0 330 264 175 418 -62 62 -158 89 -235 66z m117 -183 c33 -31 32 -90 -3
-117 -36 -28 -79 -27 -109 4 -31 30 -32 73 -4 109 27 34 82 36 116 4z"/>
</g>
</svg>
