<?xml version="1.0" standalone="no"?>
<!DOCTYPE svg PUBLIC "-//W3C//DTD SVG 20010904//EN"
 "http://www.w3.org/TR/2001/REC-SVG-20010904/DTD/svg10.dtd">
<svg version="1.0" xmlns="http://www.w3.org/2000/svg"
 width="512.000000pt" height="512.000000pt" viewBox="0 0 512.000000 512.000000"
 preserveAspectRatio="xMidYMid meet">

<g transform="translate(0.000000,512.000000) scale(0.100000,-0.100000)"
fill="#000000" stroke="none">
<path d="M792 4910 c-365 -96 -623 -535 -598 -1020 17 -336 141 -606 360 -784
33 -26 79 -58 103 -69 41 -20 43 -23 43 -66 0 -26 -13 -536 -30 -1136 -40
-1460 -39 -1399 -13 -1457 101 -221 400 -251 532 -52 56 86 56 47 22 1314 -17
641 -33 1211 -36 1266 l-5 102 73 43 c139 82 272 241 344 413 65 154 85 251
90 446 4 152 2 189 -17 280 -44 213 -127 382 -253 516 -180 191 -394 262 -615
204z m253 -135 c234 -61 420 -302 481 -622 22 -120 15 -374 -15 -483 -67 -246
-201 -430 -375 -515 -43 -22 -84 -48 -92 -60 -11 -17 -7 -232 23 -1326 34
-1251 34 -1308 18 -1343 -55 -115 -213 -126 -285 -19 -30 44 -31 -133 11 1453
18 658 29 1208 25 1223 -5 21 -22 34 -79 62 -96 46 -173 108 -235 191 -233
310 -255 804 -51 1151 44 75 180 211 245 246 105 55 220 70 329 42z"/>
<path d="M2625 4912 c-64 -30 -90 -70 -134 -205 -248 -764 -392 -1603 -431
-2512 -8 -185 -7 -223 5 -242 8 -12 78 -56 155 -98 77 -42 142 -80 144 -83 2
-4 -14 -268 -35 -587 -43 -660 -45 -732 -23 -798 20 -60 84 -131 148 -165 43
-22 64 -27 131 -27 68 0 89 4 137 28 61 30 105 74 140 140 l23 42 3 2189 2
2189 -21 44 c-42 86 -156 126 -244 85z m106 -132 c19 -11 19 -45 19 -2166 0
-2380 5 -2196 -66 -2250 -31 -24 -47 -29 -95 -29 -65 0 -98 18 -136 75 -31 44
-31 48 18 790 25 387 37 632 31 644 -4 11 -75 56 -157 102 l-149 82 2 104 c12
562 107 1294 243 1871 70 301 199 739 226 770 18 19 36 21 64 7z"/>
<path d="M3459 4911 l-24 -19 0 -634 c0 -719 0 -716 80 -876 82 -161 190 -267
352 -344 l82 -38 -5 -83 c-2 -45 -18 -620 -35 -1277 l-31 -1195 21 -56 c28
-75 80 -132 149 -166 48 -24 69 -28 137 -28 67 0 88 5 131 27 60 32 119 94
147 157 26 57 27 1 -13 1451 -17 597 -30 1105 -30 1130 0 45 0 45 50 63 140
50 302 201 375 351 83 168 79 130 83 860 l3 649 -22 23 c-29 31 -69 31 -97 1
l-22 -23 0 -615 c0 -501 -3 -627 -15 -684 -42 -200 -194 -372 -391 -444 -41
-15 -82 -35 -91 -44 -15 -15 -14 -104 16 -1234 18 -670 33 -1263 34 -1318 2
-89 -1 -104 -21 -137 -26 -42 -91 -78 -140 -78 -72 0 -145 57 -157 124 -6 29
45 2102 60 2476 5 112 3 149 -7 163 -7 9 -44 28 -81 42 -205 74 -342 219 -404
425 -14 48 -17 138 -20 695 -4 633 -4 640 -24 658 -28 22 -61 22 -90 -2z"/>
<path d="M3799 4911 l-24 -19 -3 -568 c-2 -400 1 -577 9 -595 6 -15 24 -33 40
-40 26 -10 34 -9 57 8 l27 20 3 586 c2 576 2 587 -18 607 -25 25 -61 26 -91 1z"/>
<path d="M4134 4905 l-24 -25 2 -579 c3 -631 1 -602 58 -616 18 -4 34 0 53 15
l27 21 0 585 c0 571 0 584 -20 604 -27 27 -66 25 -96 -5z"/>
<path d="M4475 4905 l-25 -24 0 -574 c0 -533 1 -576 18 -595 29 -35 67 -38 96
-8 l26 25 0 579 0 579 -23 21 c-30 29 -62 28 -92 -3z"/>
</g>
</svg>
